<svg width="22" height="20" viewBox="0 0 22 20" fill="none" xmlns="http://www.w3.org/2000/svg">
<path fill-rule="evenodd" clip-rule="evenodd" d="M9.99965 0.5C8.89508 0.5 7.99965 1.39543 7.99965 2.5V3.5H7.49965C5.29052 3.5 3.49965 5.29086 3.49965 7.5V9.13197L2.32789 9.71785C0.91257 10.4255 -0.0426939 11.969 0.288479 13.657C0.427927 14.3678 0.635518 15.1968 0.943947 15.9893C1.24837 16.7716 1.67588 17.5836 2.28867 18.2032C2.98718 18.9094 3.75391 19.2953 4.57358 19.4385C5.36541 19.5768 6.14418 19.4771 6.85466 19.3254C7.25341 19.2403 7.71365 19.1171 8.15334 18.9994C8.43823 18.9231 8.71449 18.8492 8.95981 18.7894C9.65168 18.6207 10.3206 18.5 10.9997 18.5C11.6787 18.5 12.3476 18.6207 13.0395 18.7894C13.2848 18.8492 13.5611 18.9231 13.846 18.9994C14.2857 19.1171 14.7459 19.2403 15.1446 19.3254C15.8551 19.4771 16.6339 19.5768 17.4257 19.4385C18.2454 19.2953 19.0121 18.9094 19.7106 18.2032C20.3234 17.5836 20.7509 16.7716 21.0554 15.9893C21.3638 15.1968 21.5714 14.3678 21.7108 13.657C22.042 11.969 21.0867 10.4255 19.6714 9.71785L18.4997 9.13197V7.5C18.4997 5.29086 16.7088 3.5 14.4997 3.5H13.9997V2.5C13.9997 1.39543 13.1042 0.5 11.9997 0.5H9.99965ZM9.2108 6.27639L5.49965 8.13197V7.5C5.49965 6.39543 6.39508 5.5 7.49965 5.5H14.4997C15.6042 5.5 16.4997 6.39543 16.4997 7.5V8.13197L12.7885 6.27639C11.6624 5.71334 10.3369 5.71334 9.2108 6.27639ZM10.1052 8.06525C10.6683 7.78372 11.331 7.78372 11.8941 8.06525L18.777 11.5067C19.5146 11.8755 19.8805 12.5979 19.7482 13.272C19.6226 13.9122 19.4429 14.618 19.1915 15.264C18.9361 15.9203 18.6312 16.4505 18.2887 16.7968C17.8696 17.2205 17.4748 17.3996 17.0816 17.4683C16.6605 17.5419 16.175 17.5003 15.5622 17.3695C15.1843 17.2888 14.8412 17.196 14.4645 17.0941C14.1771 17.0163 13.87 16.9332 13.5131 16.8462C12.7562 16.6618 11.91 16.5 10.9997 16.5C10.0893 16.5 9.24306 16.6618 8.48619 16.8462C8.12928 16.9332 7.82231 17.0163 7.53491 17.0941C7.15819 17.196 6.81495 17.2889 6.43711 17.3695C5.82433 17.5003 5.33879 17.5419 4.91773 17.4683C4.52451 17.3996 4.12976 17.2205 3.71064 16.7968C3.36809 16.4505 3.0632 15.9203 2.80778 15.264C2.55637 14.618 2.37668 13.9122 2.25106 13.272C2.11881 12.5979 2.48469 11.8755 3.22232 11.5067L10.1052 8.06525ZM11.9997 3.5H9.99965V2.5H11.9997V3.5Z" fill="#2F945C"/>
</svg>
